<svg version="1.1" xmlns="http://www.w3.org/2000/svg" xmlns:xlink="http://www.w3.org/1999/xlink" width="181.5" height="181.5"><g transform="translate(-147.25,-89.25)"><g data-paper-data="{&quot;isPaintingLayer&quot;:true}" fill="none" fill-rule="nonzero" stroke="none" stroke-width="none" stroke-linecap="butt" stroke-linejoin="miter" stroke-miterlimit="10" stroke-dasharray="" stroke-dashoffset="0" font-family="none" font-weight="none" font-size="none" text-anchor="none" style="mix-blend-mode: normal"><path d="M150,180c0,-48.60106 39.39894,-88 88,-88c48.60106,0 88,39.39894 88,88c0,48.60106 -39.39894,88 -88,88c-48.60106,0 -88,-39.39894 -88,-88z" data-paper-data="{&quot;origPos&quot;:null}" fill="#cc99ff" stroke="#330066" stroke-width="5.5"/><g data-paper-data="{&quot;origPos&quot;:null}" stroke="none" stroke-width="0"><path d="M215.27803,213.86231l-7.30022,-66.76905l20.85077,9.37335l2.15033,66.92762z" data-paper-data="{&quot;origPos&quot;:null,&quot;origRot&quot;:0}" fill="#330066"/><path d="M266.5873,171.38456l11.39212,-35.98383l15.20957,24.80268z" data-paper-data="{&quot;origPos&quot;:null}" fill="#7f00ff"/><path d="M228.56956,156.78396l-1.05483,-41.67989l19.00695,30.92067z" data-paper-data="{&quot;origPos&quot;:null}" fill="#7f00ff"/><path d="M206.37421,199.9878l-7.38378,-40.4141l25.33591,28.60005z" data-paper-data="{&quot;origPos&quot;:null}" fill="#7f00ff"/><path d="M266.66623,171.46349l-18.143,-20.58338l29.76617,-15.28069z" data-paper-data="{&quot;origPos&quot;:null}" fill="#6600cc"/><path d="M228.79034,156.65031l-20.92623,-9.33413l20.28743,-31.94662z" data-paper-data="{&quot;origPos&quot;:null,&quot;origRot&quot;:0}" fill="#6600cc"/><path d="M206.63219,199.96278l-17.94548,2.76125l10.30216,-43.02572c0,0 0.30973,0.51482 0.37294,0.84434c0.18964,0.98854 7.27038,39.42013 7.27038,39.42013z" data-paper-data="{&quot;origPos&quot;:null,&quot;origRot&quot;:0}" fill="#6600cc"/><path d="M230.64501,223.69321l-1.93936,-67.13858l17.75585,-10.63914l-0.92742,70.77739z" data-paper-data="{&quot;origPos&quot;:null,&quot;origRot&quot;:0}" fill="#4c0099"/><path d="M256.12778,227.65754l10.50758,-56.59033l26.40542,-11.06107l-20.9691,57.90852z" data-paper-data="{&quot;origPos&quot;:null,&quot;origRot&quot;:0}" fill="#4c0099"/><path d="M224.27204,240.52641l-17.97271,-40.55698l17.96682,-11.90494l6.24539,40.18745z" data-paper-data="{&quot;origPos&quot;:null,&quot;origRot&quot;:0}" fill="#4c0099"/><path d="M243.38041,214.96115l5.35769,-64.23747l18.10822,20.97643l-10.29661,56.1684z" data-paper-data="{&quot;origPos&quot;:null,&quot;origRot&quot;:0}" fill="#330066"/><path d="M209.53796,239.76701l-20.80199,-37.4449l18.31919,-2.22973l16.91789,39.92408z" data-paper-data="{&quot;origPos&quot;:null,&quot;origRot&quot;:0}" fill="#330066"/></g></g></g></svg>